# AST/ASF file generated using VICON BodyLanguage
# -----------------------------------------------
:version 1.10
:name VICON
:units
  mass 1.0
  length 0.45
  angle deg
:documentation
   .ast/.asf automatically generated from VICON data using
   VICON BodyBuilder and BodyLanguage model FoxedUp or BRILLIANT.MOD
:root
   order TX TY TZ RX RY RZ
   axis XYZ
   position 0 0 0  
   orientation 0 0 0 
:bonedata
  begin
     id 1 
     name lhipjoint
     direction 0.643822 -0.745931 0.170529 
     length 2.62041 
     axis 0 0 0  XYZ
  end
  begin
     id 2 
     name lfemur
     direction 0.34202 -0.939693 0  
     length 7.92179  
     axis 0 0 20  XYZ
    dof rx ry rz
    limits (-160.0 20.0)
           (-70.0 70.0)
           (-60.0 70.0)
  end
  begin
     id 3 
     name ltibia
     direction 0.34202 -0.939693 0   
     length 8.16326   
     axis 0 0 20   XYZ
    dof rx
    limits (-10.0 170.0)
  end
  begin
     id 4 
     name lfoot
     direction 0.0837341 -0.230058 0.969568   
     length 1.94455   
     axis -90 7.62852e-016 20   XYZ
    dof rx rz
    limits (-45.0 90.0)
           (-70.0 20.0)
  end
  begin
     id 5 
     name ltoes
     direction 1.5356e-011 -4.21695e-011 1   
     length 0.978804   
     axis -90 7.62852e-016 20   XYZ
    dof rx
    limits (-90.0 20.0)
  end
  begin
     id 6 
     name rhipjoint
     direction -0.656883 -0.73503 0.168037   
     length 2.65927  
     axis 0 0 0  XYZ 
  end
  begin
     id 7 
     name rfemur
     direction -0.34202 -0.939693 0   
     length 7.58746   
     axis 0 0 -20   XYZ
    dof rx ry rz
    limits (-160.0 20.0)
           (-70.0 70.0)
           (-70.0 60.0)
  end
  begin
     id 8 
     name rtibia
     direction -0.342117 -0.939657 0   
     length 8.27303   
     axis 0 0 -20   XYZ
    dof rx
    limits (-10.0 170.0)
 end
 begin
     id 9 
     name rfoot
     direction -0.0685862 -0.188439 0.979687   
     length 2.13088  
     axis -90 -7.62852e-016 -20   XYZ
    dof rx rz
    limits (-45.0 90.0)
           (-20.0 70.0)
  end
  begin
     id 10 
     name rtoes
     direction -1.53538e-011 -4.21514e-011 1   
     length 1.07326   
     axis -90 -7.62852e-016 -20   XYZ
    dof rx
    limits (-90.0 20.0)
  end
  begin
     id 11 
     name lowerback
     direction -0.0358974 0.997216 0.065354   
     length 1.87174   
     axis 0 0 0   XYZ
    dof rx ry rz
    limits (-20.0 45.0)
           (-30.0 30.0)
           (-30.0 30.0)
  end
  begin
     id 12 
     name upperback
     direction 0.0202028 0.998565 0.0495864   
     length 1.8684   
     axis 0 0 0   XYZ
    dof rx ry rz
    limits (-20.0 45.0)
           (-30.0 30.0)
           (-30.0 30.0)
  end
  begin
     id 13 
     name thorax
     direction 0.0366367 0.999163 0.0182199   
     length 1.87747   
     axis 0 0 0   XYZ
    dof rx ry rz
    limits (-20.0 45.0)
           (-30.0 30.0)
           (-30.0 30.0)
  end
  begin
     id 14 
     name lowerneck
     direction 0.0284381 0.999578 -0.00598196   
     length 1.84583   
     axis 0 0 0   XYZ
    dof rx ry rz
    limits (-20.0 45.0)
           (-30.0 30.0)
           (-30.0 30.0)
  end
  begin
     id 15 
     name upperneck
     direction -0.0888142 0.993333 -0.0734973   
     length 1.84467   
     axis 0 0 0   XYZ
    dof rx ry rz
    limits (-20.0 45.0)
           (-30.0 30.0)
           (-30.0 30.0)
  end
  begin
     id 16
     name head
     direction -0.0296474 0.999102 -0.0302696  
     length 1.86566  
     axis 0 0 0   XYZ
    dof rx ry rz
    limits (-20.0 45.0)
           (-30.0 30.0)
           (-30.0 30.0)
  end
  begin
     id 17 
     name lclavicle
     direction 0.933925 0.35714 -0.0153523  
     length 3.93442  
     axis 0 0 0   XYZ
    dof ry rz
    limits (-20.0 10.0)
           (0.0 20.0)
  end
  begin
     id 18 
     name lhumerus
     direction 1 -4.48967e-011 2.12044e-027   
     length 5.78174   
     axis 180 -30 -90   XYZ
    dof rx ry rz
    limits (-60.0 90.0)
           (-90.0 90.0)
           (-90.0 90.0)
  end
  begin
     id 19
     name lradius
     direction 1 -4.48972e-011 6.45701e-027   
     length 3.53992   
     axis 180 -30 -90   XYZ
    dof rx
    limits (-10.0 170.0)
  end
  begin
     id 20
     name lwrist
     direction 1 -4.48981e-011 1.70244e-026   
     length 1.76996   
     axis -1.1226e-014 90 90   XYZ
    dof ry
    limits (-180.0 0.0)
 end
  begin
     id 21 
     name lhand
     direction 1 -4.4879e-011 3.40615e-026   
     length 0.550243   
     axis -2.17265e-014 90 90   XYZ
    dof rx rz
    limits (-90.0 90.0)
           (-45.0 45.0)
  end
  begin
     id 22 
     name lfingers
     direction 1 -4.49029e-011 6.80911e-026   
     length 0.44362   
     axis -4.34526e-014 90 90   XYZ
    dof rx
    limits (0.0 90.0)
  end
  begin
     id 23
     name lthumb
     direction 0.707107 -6.34923e-011 0.707107   
     length 0.636952   
     axis -90 45 -1.62303e-014   XYZ
    dof rx rz
    limits (-45.0 45.0)
           (-45.0 45.0)
  end
  begin
     id 24 
     name rclavicle
     direction -0.950832 0.305106 0.0531883   
     length 3.96125  
     axis 0 0 0   XYZ 
    dof ry rz
    limits (-10.0 20.0)
           (-20.0 0.0)
  end
  begin
     id 25 
     name rhumerus
     direction -1 -4.48961e-011 -6.07392e-030  
     length 5.79352   
     axis 180 30 90   XYZ
    dof rx ry rz
    limits (-90.0 60.0)
           (-90.0 90.0)
           (-90.0 90.0)
  end
  begin
     id 26 
     name rradius
     direction -1 -4.48964e-011 5.97548e-027   
     length 3.37081   
     axis 180 30 90   XYZ
    dof rx
    limits (-10.0 170.0)
  end
  begin
     id 27 
     name rwrist
     direction -1 -4.49021e-011 1.7023e-026   
     length 1.68541   
     axis -1.1226e-014 -90 -90   XYZ
    dof ry
    limits (-180.0 0.0)
  end
  begin
     id 28
     name rhand
     direction -1 -4.48867e-011 3.40563e-026   
     length 0.679827   
     axis -2.17265e-014 -90 -90   XYZ
    dof rx rz
    limits (-90.0 90.0)
           (-45.0 45.0)
  end
  begin
     id 29
     name rfingers
     direction -1 -4.49024e-011 6.80917e-026   
     length 0.548094   
     axis -4.34526e-014 -90 -90   XYZ
    dof rx
    limits (0.0 90.0)
  end
  begin
     id 30
     name rthumb
     direction -0.707107 -6.3488e-011 0.707107   
     length 0.786956   
     axis -90 -45 1.62303e-014   XYZ
    dof rx rz
    limits (-45.0 45.0)
           (-45.0 45.0)
  end
:hierarchy
  begin
    root lhipjoint rhipjoint lowerback
    lhipjoint lfemur
    lfemur ltibia
    ltibia lfoot
    lfoot ltoes
    rhipjoint rfemur
    rfemur rtibia
    rtibia rfoot
    rfoot rtoes
    lowerback upperback
    upperback thorax
    thorax lowerneck lclavicle rclavicle
    lowerneck upperneck
    upperneck head
    lclavicle lhumerus
    lhumerus lradius
    lradius lwrist
    lwrist lhand lthumb
    lhand lfingers
    rclavicle rhumerus
    rhumerus rradius
    rradius rwrist
    rwrist rhand rthumb
    rhand rfingers
  end

#!OML:ASF H:\Terrain\Patient Classification 1\PaulMetrics\Match1Take2\PaulMetrics.ASF
:FULLY-SPECIFIED
:DEGREES
193
root 11.9925 17.7985 -30.934 -162.774 -63.9425 180.142
lowerback -7.97606 1.52212 -0.2091
upperback -5.94886 1.75813 0.895169
thorax -1.7171 0.781339 1.15354
lowerneck 8.53742 19.2156 2.56939
upperneck -1.32778 25.424 -12.1373
head 0.23377 12.9135 -4.57925
rclavicle -3.926e-014 9.14409e-015
rhumerus -57.563 9.27145 -79.101
rradius 33.5211
rwrist -15.374
rhand -15.4909 -35.0997
rfingers 7.12502
rthumb 10.6912 -64.8076
lclavicle -3.926e-014 9.14409e-015
lhumerus -49.7985 -18.4948 85.8103
lradius 70.3393
lwrist 9.10009
lhand -24.0461 -7.34998
lfingers 7.12502
lthumb 2.43281 22.6159
rfemur -32.2596 8.19753 12.5086
rtibia 29.349
rfoot -12.8429 -10.5803
rtoes -20.0384
lfemur -26.6663 -11.7116 -16.0292
ltibia 52.806
lfoot 11.2865 -19.7099
ltoes 1.257
194
root 11.9745 17.8053 -31.006 -162.407 -64.8891 179.638
lowerback -7.94862 1.55548 -0.259516
upperback -5.63222 1.83089 0.678548
thorax -1.39843 0.825598 0.96634
lowerneck 7.99802 19.1568 2.38638
upperneck -1.3724 25.3467 -11.9673
head 0.252041 12.8623 -4.44503
rclavicle -4.25399e-014 -1.82882e-014
rhumerus -56.6362 9.10793 -79.3055
rradius 33.0785
rwrist -15.114
rhand -15.2221 -35.1343
rfingers 7.12502
rthumb 10.9505 -64.8288
lclavicle -4.25399e-014 -1.82882e-014
lhumerus -49.0445 -18.1346 85.0562
lradius 69.9613
lwrist 9.20391
lhand -24.2419 -7.54034
lfingers 7.12502
lthumb 2.24379 22.4276
rfemur -31.925 7.70148 12.7186
rtibia 29.6257
rfoot -13.2136 -11.0335
rtoes -19.7367
lfemur -27.7582 -11.5767 -15.9091
ltibia 54.3772
lfoot 10.4055 -19.9033
ltoes -4.59773
195
root 11.9463 17.8182 -31.0739 -161.391 -65.7839 178.484
lowerback -7.43779 1.39711 -1.08094
upperback -5.8239 1.66495 0.841094
thorax -1.90787 0.772096 1.56873
lowerneck 8.06708 19.2206 2.07459
upperneck -1.14911 25.4095 -11.9052
head 0.27085 12.8851 -4.3815
rclavicle -2.61402e-014 1.39149e-014
rhumerus -56.5526 9.93682 -79.3327
rradius 32.9313
rwrist -14.9259
rhand -15.2369 -35.2994
rfingers 7.12502
rthumb 10.9362 -64.9945
lclavicle -2.61402e-014 1.39149e-014
lhumerus -49.4024 -16.9721 84.9823
lradius 69.6936
lwrist 8.85836
lhand -24.3815 -7.29009
lfingers 7.12502
lthumb 2.10887 22.6792
rfemur -31.6454 6.57107 12.7899
rtibia 29.9171
rfoot -13.4032 -10.8562
rtoes -20.1799
lfemur -28.7974 -11.6334 -16.108
ltibia 55.8809
lfoot 9.46058 -19.183
ltoes -7.10853
196
root 11.9185 17.8243 -31.1361 -161.277 -66.8409 178.585
lowerback -7.52264 1.48053 -0.999002
upperback -5.85026 1.77232 0.896865
thorax -1.89149 0.824385 1.58797
lowerneck 7.85288 19.1091 1.91308
upperneck -0.869494 25.2737 -11.7929
head 0.350573 12.8006 -4.2879
rclavicle -1.67849e-014 1.82882e-014
rhumerus -56.3114 10.2387 -79.4331
rradius 32.892
rwrist -14.86
rhand -15.2482 -35.4089
rfingers 7.12502
rthumb 10.9253 -65.1047
lclavicle -1.67849e-014 1.82882e-014
lhumerus -49.2728 -16.5826 84.887
lradius 69.3608
lwrist 8.88365
lhand -24.7682 -7.46825
lfingers 7.12502
lthumb 1.7354 22.5044
rfemur -31.6347 5.16766 13.5299
rtibia 30.2283
rfoot -13.2439 -10.6296
rtoes -21.4909
lfemur -30.114 -11.5727 -15.6822
ltibia 57.3174
lfoot 8.69323 -17.8437
ltoes -6.15185
197
root 11.889 17.8277 -31.2008 -161.394 -67.7606 178.74
lowerback -7.68417 1.68595 -0.655648
upperback -5.64246 2.04096 0.728041
thorax -1.57574 0.949328 1.24441
lowerneck 7.55153 18.924 1.90124
upperneck -0.820397 25.0448 -11.726
head 0.386356 12.6781 -4.23402
rclavicle 2.17421e-014 -1.94809e-014
rhumerus -55.8102 10.2077 -79.7682
rradius 32.7982
rwrist -14.9016
rhand -14.9774 -35.1887
rfingers 7.12502
rthumb 11.1865 -64.8704
lclavicle 2.17421e-014 -1.94809e-014
lhumerus -48.6241 -16.4386 84.5019
lradius 68.7436
lwrist 8.9833
lhand -24.9841 -8.36355
lfingers 7.12502
lthumb 1.52693 21.6107
rfemur -31.4427 4.48086 14.0844
rtibia 30.5735
rfoot -13.3075 -10.6761
rtoes -21.897
lfemur -31.1337 -11.17 -15.3954
ltibia 58.5729
lfoot 7.64221 -16.7322
ltoes -5.2116
198
root 11.8639 17.8329 -31.2668 -161.54 -68.6718 178.733
lowerback -7.10296 1.57652 -1.11202
upperback -5.76044 1.92195 1.07509
thorax -2.04583 0.914108 1.83266
lowerneck 7.61736 18.9652 1.73149
upperneck -0.572076 25.0959 -11.828
head 0.455641 12.6954 -4.23405
rclavicle 2.08972e-014 -7.95139e-015
rhumerus -55.7188 11.272 -80.0483
rradius 32.755
rwrist -14.9592
rhand -15.069 -35.1625
rfingers 7.12502
rthumb 11.0982 -64.849
lclavicle 2.08972e-014 -7.95139e-015
lhumerus -48.7081 -15.1937 84.5906
lradius 68.093
lwrist 8.72629
lhand -25.3783 -8.70784
lfingers 7.12502
lthumb 1.14622 21.2688
rfemur -31.0548 4.18921 14.4747
rtibia 30.8642
rfoot -13.4168 -10.9872
rtoes -23.0187
lfemur -31.9179 -10.5804 -15.2757
ltibia 59.6318
lfoot 6.34424 -15.726
ltoes -4.39504
